<?xml version="1.0" standalone="no"?>
<svg version="1.0" xmlns="http://www.w3.org/2000/svg" viewBox="0 0 1408 752" preserveAspectRatio="xMidYMid meet">
  <g transform="translate(0.000000,752.000000) scale(0.100000,-0.100000)" stroke="none">
    
    <path fill="#00D26A" d="M2683 5400 c-364 -35 -757 -217 -1008 -466 -386 -382 -567 -860 -526 -1383 19 -234 60 -386 161 -598 71 -149 151 -268 273 -404 146 -163 297 -279 485 -374 192 -95 314 -135 517 -170 578 -97 1182 125 1565 575 78 91 186 253 223 333 l17 37 -305 0 -304 0 -27 -35 c-38 -50 -177 -170 -259 -223 -219 -142 -435 -201 -695 -189 -152 7 -225 23 -363 77 -369 144 -645 453 -747 835 -30 113 -37 328 -16 455 68 413 349 774 724 931 115 48 284 87 408 95 231 14 489 -60 698 -200 104 -71 222 -182 288 -273 l60 -83 284 0 c233 0 284 2 284 14 0 25 -78 180 -130 261 -212 323 -485 547 -829 680 -108 42 -250 80 -351 94 -113 15 -323 21 -427 11z"/>
    
    <g fill="#4B0082">
      <path d="M9906 4347 c1 -61 2 -118 3 -124 1 -10 45 -13 186 -13 l185 0 0 -525 0 -525 145 0 145 0 0 525 0 525 190 0 190 0 0 125 0 125 -522 0 -523 0 1 -113z"/>
      <path d="M2450 4080 l0 -140 206 0 206 0 -291 -297 c-160 -163 -291 -303 -291 -309 0 -14 180 -184 194 -184 9 0 75 66 393 393 105 108 194 197 197 197 3 0 6 -94 6 -210 l0 -210 135 0 135 0 0 450 0 450 -445 0 -445 0 0 -140z"/>
      <path d="M3982 4125 c-98 -18 -172 -56 -241 -124 -74 -72 -106 -129 -132 -232 -17 -65 -20 -102 -16 -169 10 -171 92 -297 258 -402 79 -50 281 -67 394 -34 213 63 345 247 345 483 0 248 -172 449 -414 482 -93 13 -100 13 -194 -4z m224 -251 c84 -54 123 -168 103 -297 -14 -88 -52 -142 -123 -179 -31 -16 -54 -19 -107 -16 -86 5 -141 39 -178 113 -23 43 -26 62 -26 150 0 91 2 104 28 147 28 49 77 92 112 101 11 2 49 5 85 6 55 1 73 -3 106 -25z"/>
      <path d="M5150 4124 c-55 -15 -67 -22 -132 -83 l-37 -34 -7 51 -6 50 -77 6 c-42 4 -98 5 -126 2 l-50 -4 0 -474 0 -473 137 -3 137 -3 3 308 c3 290 4 310 24 348 29 56 75 85 136 85 61 0 101 -20 125 -62 16 -30 18 -66 21 -355 l3 -323 135 0 134 0 0 284 c0 282 3 314 38 383 35 69 146 95 213 50 63 -42 68 -73 68 -415 l1 -303 131 3 131 3 -1 345 c-2 387 -6 419 -70 503 -52 70 -112 104 -203 118 -65 11 -86 10 -143 -4 -76 -19 -152 -69 -185 -122 -12 -19 -23 -35 -24 -35 -2 0 -16 20 -32 45 -35 57 -104 102 -174 115 -69 13 -103 12 -170 -6z"/>
      <path d="M6795 4131 c-72 -12 -118 -34 -169 -82 l-46 -42 0 44 c0 24 -4 49 -8 54 -4 6 -60 10 -130 10 l-124 0 0 -665 0 -665 136 -3 136 -3 0 246 0 247 55 -47 c31 -27 74 -53 101 -61 63 -19 188 -18 255 2 175 52 299 248 299 473 0 160 -46 278 -149 382 -89 89 -225 130 -356 110z m127 -256 c16 -11 43 -42 60 -70 30 -45 33 -58 37 -139 3 -99 -7 -149 -46 -207 -68 -103 -242 -106 -330 -6 -40 45 -57 102 -56 187 0 98 17 145 72 200 54 54 68 59 166 57 52 -2 77 -7 97 -22z"/>
      <path d="M7755 4130 c-147 -17 -253 -80 -304 -181 -29 -59 -40 -109 -23 -109 4 0 48 -7 97 -15 129 -21 131 -21 152 22 27 54 60 74 134 80 75 6 128 -12 154 -51 20 -30 32 -111 18 -119 -4 -3 -71 -10 -148 -17 -241 -20 -324 -46 -392 -124 -49 -55 -67 -114 -60 -200 6 -86 14 -103 76 -169 80 -86 174 -115 314 -97 88 11 134 32 195 88 l42 39 11 -41 c20 -74 13 -71 155 -71 110 0 128 2 125 15 -2 8 -11 38 -18 65 -11 35 -17 136 -23 335 -8 321 -14 347 -83 426 -89 102 -236 145 -422 124z m238 -590 c-6 -115 -75 -190 -183 -198 -124 -9 -201 78 -145 164 24 36 67 52 185 68 149 19 145 20 143 -34z"/>
      <path d="M11278 4129 c-85 -6 -106 -11 -175 -45 -121 -60 -206 -160 -245 -287 -17 -58 -20 -87 -16 -186 4 -114 5 -121 43 -197 48 -95 108 -158 198 -208 115 -64 280 -78 429 -36 57 16 180 103 214 152 80 111 109 214 101 358 -9 155 -70 275 -181 355 -119 84 -199 105 -368 94z m151 -249 c40 -20 88 -74 109 -122 38 -90 21 -222 -39 -297 -51 -65 -94 -84 -179 -79 -61 3 -72 7 -115 42 -67 55 -95 119 -95 216 0 77 17 129 60 190 47 66 178 92 259 50z"/>
      <path d="M12438 4129 c-71 -10 -127 -38 -178 -89 l-39 -39 -3 57 -3 57 -127 3 -128 3 0 -671 0 -671 133 3 132 3 0 243 c-1 133 1 242 2 242 2 0 28 -20 57 -44 78 -63 136 -80 257 -73 81 4 106 10 147 32 130 70 211 186 239 338 17 99 10 233 -17 312 -71 205 -262 324 -472 294z m102 -249 c80 -41 120 -122 120 -242 -1 -172 -90 -267 -240 -256 -71 5 -118 37 -165 113 -28 45 -30 55 -30 144 0 86 3 101 27 141 50 86 104 120 191 120 38 0 71 -7 97 -20z"/>
      <path d="M8857 4116 c-57 -21 -116 -76 -145 -136 l-17 -35 -5 84 -5 85 -105 3 c-57 2 -115 1 -127 -2 l-23 -5 0 -475 0 -476 130 3 130 3 2 261 3 260 30 59 c43 84 97 117 205 123 l80 5 0 128 0 129 -57 0 c-32 -1 -75 -7 -96 -14z"/>
      <path d="M9332 4115 c-63 -18 -85 -29 -132 -65 -42 -34 -96 -121 -105 -171 l-7 -35 104 -17 c134 -22 134 -22 146 12 6 16 26 41 46 56 69 53 211 43 250 -17 23 -35 33 -116 15 -122 -8 -2 -87 -11 -177 -21 -187 -19 -241 -32 -308 -78 -136 -91 -154 -299 -37 -413 63 -62 105 -81 207 -94 128 -17 220 9 306 87 28 25 41 31 45 22 2 -8 10 -32 17 -54 l13 -40 119 -3 c66 -1 126 0 133 2 10 4 9 13 -4 43 -16 39 -19 88 -26 443 -5 223 -19 279 -90 357 -30 32 -75 67 -111 86 -59 30 -66 31 -206 34 -105 2 -160 -1 -198 -12z m326 -595 c-6 -80 -21 -109 -79 -147 -81 -53 -222 -38 -249 28 -30 72 22 158 98 160 20 0 73 6 117 14 129 21 118 26 113 -55z"/>
    </g>
  </g>
</svg>
